<svg xmlns="http://www.w3.org/2000/svg" viewBox="0 0 640 800"><defs><linearGradient id="bg" x2="1" y2="1"><stop stop-color="#d4d0c8"/><stop offset="1" stop-color="#9f9d95"/></linearGradient><linearGradient id="tee" x2="1" y2="1"><stop stop-color="#a8a79e"/><stop offset="1" stop-color="#777971"/></linearGradient></defs><path fill="url(#bg)" d="M0 0h640v800H0z"/><ellipse cx="320" cy="725" rx="197" ry="25" fill="#282923" opacity=".17"/><path d="m211 187 86-42 27 29 30-29 82 42 91 82-68 77-52-39v279H234V307l-52 39-70-77 99-82Z" fill="url(#tee)"/><path d="M291 151c4 31 21 46 34 46s31-15 35-46l-36 23-33-23Z" fill="#777971"/><path d="M249 338h143" stroke="#777971" stroke-width="2"/><path d="M277 385h86" stroke="#d0c6b0" stroke-width="2" opacity=".6"/><text x="320" y="760" fill="#55544e" font-family="Arial" font-size="13" letter-spacing="4" text-anchor="middle">THE RELIABLE CREW</text></svg>
